<svg xmlns="http://www.w3.org/2000/svg" viewBox="0 0 64 64">
  <rect width="64" height="64" rx="16" fill="#050505"/>
  <circle cx="32" cy="32" r="24" fill="#8b5cf6"/>
  <circle cx="32" cy="32" r="19" fill="#111827"/>
  <path d="M32 10l6.8 13.8 15.2 2.2-11 10.7 2.6 15.1L32 44.7l-13.6 7.1L21 36.7 10 26l15.2-2.2L32 10z" fill="#a78bfa"/>
  <path d="M32 17l4.6 9.3 10.3 1.5-7.5 7.3 1.8 10.3L32 40.6l-9.2 4.8 1.8-10.3-7.5-7.3 10.3-1.5L32 17z" fill="#050505"/>
  <path d="M20.7 28.4h22.6M25.4 42.7l13.2-25.4M25.4 17.3l13.2 25.4" stroke="#8b5cf6" stroke-width="3" stroke-linecap="round"/>
</svg>
